<svg xmlns="http://www.w3.org/2000/svg" width="128" height="128" viewBox="0 0 128 128">
  <!-- steam as a latency/ping waveform -->
  <path d="M26 40 h18 l7 -20 9 30 7 -16 h28" fill="none" stroke="#DA8A00"
        stroke-width="7" stroke-linecap="round" stroke-linejoin="round"/>
  <!-- mug body -->
  <path fill="#834DF0" d="M30 56h58c2.2 0 4 1.8 4 4v28c0 12.2-9.8 22-22 22H48c-12.2 0-22-9.8-22-22V60c0-2.2 1.8-4 4-4z"/>
  <!-- handle -->
  <path fill="none" stroke="#834DF0" stroke-width="9" d="M92 66c8 0 14 6 14 13.5S100 93 92 93"/>
  <!-- foam band -->
  <path fill="#EDE3FB" d="M30 56h58c2.2 0 4 1.8 4 4v8H26v-8c0-2.2 1.8-4 4-4z"/>
  <!-- saucer -->
  <rect x="20" y="114" width="78" height="8" rx="4" fill="#834DF0" opacity="0.45"/>
</svg>
